<?xml version="1.0" standalone="no"?>
<!DOCTYPE svg PUBLIC "-//W3C//DTD SVG 20010904//EN"
 "http://www.w3.org/TR/2001/REC-SVG-20010904/DTD/svg10.dtd">
<svg version="1.0" xmlns="http://www.w3.org/2000/svg"
 width="1024.000000pt" height="350.000000pt" viewBox="0 0 1024.000000 350.000000"
 preserveAspectRatio="xMidYMid meet">

<g transform="translate(0.000000,350.000000) scale(0.100000,-0.100000)"
fill="rgb(176, 163, 240)" stroke="none">
<path d="M3118 2223 c2 -893 4 -955 22 -1068 50 -297 67 -396 72 -400 3 -3
313 -4 689 -3 521 2 678 6 659 14 -77 35 -253 190 -326 288 l-46 61 -357 5
-356 5 1 205 c0 113 -1 573 -4 1023 l-5 817 -176 0 -176 0 3 -947z"/>
<path d="M6840 3150 c-162 -16 -322 -78 -457 -178 -211 -157 -379 -436 -429
-711 -25 -136 -30 -445 -10 -561 62 -354 263 -656 541 -815 165 -94 369 -137
542 -115 179 22 324 82 482 200 364 270 517 832 376 1385 -45 180 -162 388
-292 522 -138 142 -355 251 -534 268 -128 12 -145 12 -219 5z m253 -365 c236
-72 398 -260 469 -543 30 -119 32 -403 4 -532 -43 -204 -127 -341 -279 -461
-248 -196 -559 -164 -791 81 -155 165 -234 405 -223 680 6 156 30 249 102 395
104 214 256 349 439 391 72 16 208 11 279 -11z"/>
<path d="M8042 1960 l3 -1200 658 0 657 0 0 168 0 169 -172 6 c-95 4 -307 7
-472 7 l-299 0 8 410 c4 226 4 687 0 1025 l-8 615 -189 0 -189 0 3 -1200z"/>
<path d="M2278 3033 c-36 -65 -123 -224 -193 -353 -71 -129 -138 -251 -150
-270 -28 -44 -337 -590 -440 -775 -42 -77 -128 -225 -190 -330 -61 -104 -179
-309 -260 -455 -131 -233 -263 -458 -319 -543 l-19 -27 188 2 187 3 195 340
c240 419 274 480 403 725 57 107 138 254 180 325 77 129 424 726 549 943 35
61 66 111 67 109 3 -3 30 -195 98 -702 15 -104 41 -265 59 -356 l33 -166 -80
-7 c-45 -3 -143 -6 -220 -6 l-138 0 17 27 c10 15 69 110 132 212 l114 184 -11
96 c-13 108 -57 381 -62 386 -4 4 -114 -181 -186 -310 -24 -44 -108 -186 -185
-315 -101 -168 -307 -541 -307 -555 0 0 212 1 470 2 l471 3 9 -25 c5 -13 34
-192 65 -397 31 -205 60 -405 66 -444 11 -69 12 -72 41 -78 17 -3 1489 -6
3271 -6 l3240 0 -6 166 c-4 92 -9 169 -13 173 -7 8 -5232 3 -5816 -5 l-427 -6
-6 38 c-4 22 -24 121 -46 222 -51 244 -65 323 -89 542 -24 215 -120 840 -156
1015 -32 158 -101 571 -110 663 l-7 72 -176 0 -177 0 -66 -117z"/>
<path d="M4900 3143 c-14 -2 -61 -13 -104 -24 -315 -80 -573 -331 -688 -669
-54 -162 -73 -285 -73 -490 0 -204 14 -297 66 -453 62 -186 148 -328 278 -457
147 -147 321 -235 521 -265 174 -27 319 -13 495 46 117 40 323 142 369 182
l35 32 5 598 5 597 -455 0 -454 0 2 -167 3 -168 275 -5 275 -5 0 -319 c0 -268
-2 -322 -15 -334 -23 -24 -169 -90 -235 -107 -215 -55 -483 44 -641 236 -84
102 -151 257 -174 403 -18 109 -8 350 18 448 50 184 114 302 221 408 128 125
246 174 416 174 161 -1 262 -49 401 -190 l91 -93 122 123 c66 68 121 126 121
129 0 11 -90 108 -148 159 -160 140 -384 220 -609 217 -54 -1 -109 -4 -123 -6z"/>
<path d="M1617 988 c-30 -51 -129 -217 -220 -369 -91 -152 -172 -290 -181
-306 l-15 -30 150 -6 c223 -8 200 -20 294 146 44 78 105 191 136 250 l55 108
398 -1 398 0 -5 27 c-3 16 -12 83 -18 151 l-13 122 -462 0 -463 0 -54 -92z"/>
</g>
</svg>
